<svg version="1" xmlns="http://www.w3.org/2000/svg" width="1005.333" height="1005.333" viewBox="0 0 754.000000 754.000000"><path d="M354.8.5c-.2.1-4.5.6-9.6.9-5.1.4-10.1.9-11 1.1-.9.1-4.2.6-7.3.9-3.1.4-6.7.9-8 1.1-1.3.3-5.1 1-8.4 1.5-3.3.5-7.1 1.2-8.5 1.5-1.4.4-3.6.8-5 1.1-1.4.3-4.1.9-6 1.4-1.9.5-4.6 1.1-6 1.4-9.4 1.9-29 8.3-47 15.3-42.6 16.6-87.7 45.5-120.5 77.2-27.1 26.3-47.4 51.8-65.4 82.6-2.9 4.9-5.6 9.7-6.1 10.5-3.2 5.4-14.1 28.6-18.5 39.5-7.1 17.4-16.4 47.5-19.1 62-1.6 8.5-4.5 26.9-5 31-.3 2.7-.7 6.1-1 7.5C2 339.7.7 359.8.6 366.5l-.1 4H126l.1-4.5c.5-14.3 3.1-34.5 6.2-46.5 7.8-30.6 15.4-49 31.2-75.3 16.4-27.4 45.8-57.6 74.6-76.9 35.1-23.4 74.8-37.2 117.9-41 14.6-1.2 43.7-.6 53.1 1.2.9.2 3.9.7 6.6 1 26.3 3.7 59.8 15.4 84.3 29.6 3 1.8 6.4 3.7 7.5 4.3 11.7 6.6 29.7 20.8 43.7 34.5l9.7 9.4-28.2 28.2c-15.5 15.6-29.1 29.2-30.1 30.4l-1.9 2.1h199V67.8l-5.4 5.4c-3 2.9-14.1 14-24.6 24.5-10.6 10.6-19.6 19.3-20.1 19.3-.4 0-4.9-4-10-9-9.8-9.6-11-10.7-23.1-20.9-11.1-9.3-22.2-17.6-34-25.3-9-5.8-12.2-7.8-23-14-6.7-3.9-31.6-15.9-40-19.3-17.7-7.2-41.4-15.1-50.5-16.9-1.4-.2-6.3-1.4-11-2.5-11.1-2.7-25.5-5.1-39.5-6.6-3.3-.4-7.1-.9-8.5-1.2-2.6-.5-54.7-1.3-55.2-.8z"/><path d="M322.4 278.4c-1.8.8-3.8 2.9-5 5.2-1.8 3.7-1.9 7.5-2.2 92.4-.2 62.2 0 89.6.8 92.3 2.5 8.4 9.4 8.5 25.3.2 14-7.2 17.1-8.9 17.7-9.5.5-.6 18.4-10.5 31-17.3 4.1-2.2 8-4.3 8.5-4.7.6-.4 3-1.9 5.5-3.3 2.5-1.3 22.5-12.5 44.5-24.7s42-23.4 44.5-24.7c8.1-4.6 10.3-9.8 5.8-14-1.3-1.1-17.6-10.6-36.3-21-18.7-10.5-41.9-23.4-51.5-28.8-9.6-5.3-19.3-10.7-21.5-11.9-2.2-1.2-14.8-8.2-27.9-15.5-21.9-12.3-30.3-16.2-34.5-16.1-.9.1-3 .7-4.7 1.4z"/><path d="M628.1 382c-.5.3-1.1 5.2-1.5 11-.7 11.6-.8 12.5-3.6 28.6-10 57.4-43.5 113-90.5 150.4-30.4 24.2-67.3 41.4-106 49.6-24 5.1-56.5 6.2-82.2 2.9-45.1-5.8-89.5-24.8-125-53.7-9.6-7.8-26.3-23.7-26.3-25 0-.5 13.3-14.1 29.5-30.3 16.2-16.2 29.5-29.7 29.5-30 0-.3-44.7-.5-99.3-.5H53.4l-.1 99.5v99.6l3-2.8c1.6-1.5 12.8-12.6 24.8-24.6 12-12.1 22.3-21.7 22.8-21.5.5.1 5.6 4.8 11.3 10.3 14.1 13.6 27.1 24.8 36.8 31.8 1.4.9 4.1 2.9 6 4.3 18.9 14 48.7 30.6 73.2 40.9 26.3 11.1 61.7 21.2 87.3 25 2.2.3 5.4.8 7 1 17.6 2.8 59.3 4 81.2 2.2 57.5-4.5 117.9-24.2 165.8-54.1 75-46.7 130.9-115.9 159-196.6 6.4-18.3 12.8-42.6 14.9-56.4.4-2.1.8-4.1 1-4.5.2-.3.7-3.3 1-6.6.4-3.3.9-6.9 1.1-8 .9-4.4 1.6-12.5 3-35.3.2-3.9.1-7.3-.3-7.3-2.3-.4-123.5-.3-124.1.1z"/></svg>